# ProBuilder 5.0.6
# https://unity3d.com/unity/features/worldbuilding/probuilder
# 1/27/2023 8:12:57 AM

mtllib ./BandTest.mtl
o BandTest

g BandTest
v 1.459 -0.5 0.5
v 1.459 -0.5 -0.5
v 1.459 0.5 0.5
v 1.459 0.5 -0.5
v 2.459 -0.5 -0.5
v 2.459 -0.5 0.5
v 2.459 0.5 -0.5
v 2.459 0.5 0.5
v 1.565279 -0.5 0.5
v 1.585629 0.4999999 0.5
v 1.565279 -0.5 -0.5
v 1.585629 0.4999999 -0.5
v 1.585629 0.7967294 0.5
v 1.459 0.7967294 0.5
v 1.459 0.7967294 -0.5
v 1.585629 0.7967294 -0.5
v 2.325341 -0.5 0.5
v 2.335516 0.4999999 0.5
v 2.335516 0.4999999 -0.5
v 2.325341 -0.5 -0.5
v 2.335516 0.7967294 -0.5
v 2.459 0.7967294 -0.5
v 2.459 0.7967294 0.5
v 2.335516 0.7967294 0.5

vt 0.5 -0.5
vt -0.5 -0.5
vt 0.5 0.5
vt -0.5 0.5
vt -0.3937213 -0.5
vt -0.3733711 0.4999999
vt 0.3937213 -0.5
vt 0.3733711 0.4999999
vt 0.3733709 0.5
vt 0.4999998 0.5
vt 0.4999998 -0.5
vt 0.3733709 -0.5
vt -0.3937213 0.5
vt 0.3663408 -0.5
vt 0.376516 0.4999999
vt -0.376516 0.4999999
vt -0.3663408 -0.5
vt -0.376516 -0.5
vt -0.376516 0.5
vt 0.3663408 0.5
vt -0.3765157 0.7967294
vt -0.4999996 0.7967294
vt 0.5 0.4999996
vt -0.5 0.4999996
vt 0.5 0.7967291
vt 0.4999996 0.7967294
vt 0.3765157 0.7967294
vt 0.3733709 0.7967294
vt -0.3733709 0.7967294

vn -1 0 0
vn 1 0 0
vn 0 -2.220446E-17 1
vn 0 2.220446E-17 -1
vn 0 1 2.220446E-17
vn 0 -1 -2.220446E-17

usemtl PlaneMat
f 3/3/1 4/4/1 2/2/1 1/1/1
f 7/3/2 8/4/2 6/2/2 5/1/2
f 10/6/3 3/4/3 1/2/3 9/5/3
f 2/1/4 4/3/4 12/8/4 11/7/4
f 14/10/5 13/9/5 16/12/5 15/11/5
f 11/5/6 9/13/6 1/4/6 2/2/6
f 18/15/3 17/14/3 6/1/3 8/3/3
f 10/6/3 9/5/3 17/14/3 18/15/3
f 7/4/4 5/2/4 20/17/4 19/16/4
f 19/16/4 20/17/4 11/7/4 12/8/4
f 24/19/5 23/4/5 22/2/5 21/18/5
f 11/5/6 20/14/6 17/20/6 9/13/6
f 20/14/6 5/1/6 6/3/6 17/20/6
f 21/21/4 22/22/4 7/4/4 19/16/4
f 24/25/1 21/22/1 19/24/1 18/23/1
f 22/25/2 23/22/2 8/24/2 7/23/2
f 23/26/3 24/27/3 18/15/3 8/3/3
f 15/26/4 16/28/4 12/8/4 4/3/4
f 16/25/2 13/22/2 10/24/2 12/23/2
f 14/25/1 15/22/1 4/24/1 3/23/1
f 13/29/3 14/22/3 3/4/3 10/6/3

usemtl BandMat
f 10/9/5 18/19/5 19/18/5 12/12/5

