# ProBuilder 5.0.6
# https://unity3d.com/unity/features/worldbuilding/probuilder
# 1/29/2023 11:39:16 PM

mtllib ./Cube.mtl
o Cube

g Cube
v -18.48 3.860954 0.4964318
v -18.48 4.860954 0.4964318
v -18.48 4.860954 -0.5035682
v -18.48 3.860954 -0.5035682
v -19.48 3.860954 -0.5035682
v -19.48 4.860954 -0.5035682
v -19.48 4.860954 0.4964318
v -19.48 3.860954 0.4964318
v -18.53931 4.860954 0.4964318
v -18.53931 3.860954 0.4964318
v -18.53931 5.09479 -0.5035682
v -18.48 5.09479 -0.5035682
v -18.48 5.09479 0.4964318
v -18.53931 5.09479 0.4964318
v -18.53931 3.860954 -0.5035682
v -18.53931 4.860954 -0.5035682
v -19.41903 3.860954 0.4964318
v -19.41903 4.860954 0.4964318
v -19.48 5.09479 -0.5035682
v -19.41903 5.09479 -0.5035682
v -19.41903 5.09479 0.4964318
v -19.48 5.09479 0.4964318
v -19.41903 4.860954 -0.5035682
v -19.41903 3.860954 -0.5035682

vt 0 0
vt 0 1
vt 1 1
vt 1 0
vt 0.5 1
vt 0.5 0
vt 0.25 0
vt 0.25 1
vt -0.4406929 0.5
vt -0.5 0.5
vt -0.4406929 0.7338367
vt -0.5 0.7338367
vt 0.5 0.5
vt 0.5 0.7338367
vt 0.4406929 0.5
vt 0.4406929 0.7338367
vt 0.4390297 0.5
vt 0.4390297 0.7338367
vt -0.4390297 0.5
vt -0.4390297 0.7338367

vn 1 0 0
vn -1 0 0
vn 0 0 1
vn 0 1 0
vn 0 0 -1
vn 0 -1 0

usemtl BandMat_1
f 4/4/1 3/3/1 2/2/1 1/1/1
f 8/4/2 7/3/2 6/2/2 5/1/2
f 2/3/3 9/5/3 10/6/3 1/4/3
f 14/6/4 13/4/4 12/3/4 11/5/4
f 15/5/5 16/6/5 3/4/5 4/3/5
f 4/4/6 1/3/6 10/5/6 15/6/6
f 9/5/3 18/8/3 17/7/3 10/6/3
f 18/8/3 7/2/3 8/1/3 17/7/3
f 22/1/4 21/7/4 20/8/4 19/2/4
f 24/8/5 23/7/5 16/6/5 15/5/5
f 5/2/5 6/1/5 23/7/5 24/8/5
f 24/7/6 17/8/6 8/2/6 5/1/6
f 15/6/6 10/5/6 17/8/6 24/7/6
f 11/11/5 12/12/5 3/10/5 16/9/5
f 12/14/1 13/12/1 2/10/1 3/13/1
f 14/14/2 11/12/2 16/10/2 9/13/2
f 13/14/3 14/16/3 9/15/3 2/13/3
f 19/14/5 20/18/5 23/17/5 6/13/5
f 20/14/1 21/12/1 18/10/1 23/13/1
f 22/14/2 19/12/2 6/10/2 7/13/2
f 21/20/3 22/12/3 7/10/3 18/19/3

usemtl BandMat
f 18/7/4 9/6/4 16/5/4 23/8/4

